# xmcd
#
# Track frame offsets:
#	150
#	21518
#	41390
#	56326
#	71694
#	90428
#	103996
#	125011
#	139955
#	157219
#	175638
#	184557
#	204208
#	223540
#	243401
#	263692
#	267042
#
# Disc length: 3820 seconds
#
# Revision: 0
# Processed by: cddbd v1.5.2PL0 Copyright (c) Steve Scherf et al.
# Submitted via: audiograbber 1.83.01
#
DISCID=f00eea11
DTITLE=Jil Caplan - Jours De Fête (Best Of)
DYEAR=1998
DGENRE=Variété Française
TTITLE0=Comme sur une balançoire
TTITLE1=Tout c'qui nous sépare
TTITLE2=Tu verras (o que sera)
TTITLE3=Cette fille n'est pas pour toi
TTITLE4=Natalie Wood
TTITLE5=Oh ! Tous les soirs
TTITLE6=La frontière
TTITLE7=L'hôtel des quatre malheurs
TTITLE8=As-tu déjà  oublié
TTITLE9=Entre les tombes
TTITLE10=Lumière
TTITLE11=La grande malle
TTITLE12=L'age de raison
TTITLE13=Les clés
TTITLE14=Les deux bras arrachés
TTITLE15=Les mots
TTITLE16=La charmeuse de serpents
EXTD=YEAR: 1998
EXTT0=
EXTT1=
EXTT2=
EXTT3=
EXTT4=
EXTT5=
EXTT6=
EXTT7=
EXTT8=
EXTT9=
EXTT10=
EXTT11=
EXTT12=
EXTT13=
EXTT14=
EXTT15=
EXTT16=
PLAYORDER=
